<!DOCTYPE svg PUBLIC "-//W3C//DTD SVG 1.1//EN" "http://www.w3.org/Graphics/SVG/1.1/DTD/svg11.dtd">
<!-- Uploaded to: SVG Repo, www.svgrepo.com, Transformed by: SVG Repo Mixer Tools -->
<svg width="800px" height="800px" viewBox="0 0 24 24" fill="none" xmlns="http://www.w3.org/2000/svg">
<g id="SVGRepo_bgCarrier" stroke-width="0"/>
<g id="SVGRepo_tracerCarrier" stroke-linecap="round" stroke-linejoin="round"/>
<g id="SVGRepo_iconCarrier"> <path d="M7.28031 4.26131L5.68903 2.67002C6.04 1.6721 6.98392 1 8.04725 1H13.1756C14.9704 1 16.1805 2.83513 15.4735 4.4848L13.967 8H18.2405C20.4882 8 21.5942 10.7352 19.9781 12.2975L17.6078 14.5888L16.1933 13.1743L18.588 10.8595C18.9112 10.547 18.69 10 18.2405 10H13.019L11.5776 8.55855C11.5937 8.48122 11.6179 8.40384 11.6508 8.3273L13.6352 3.69696C13.7766 3.36703 13.5346 3 13.1756 3H8.04725C7.82951 3 7.6368 3.14091 7.57078 3.3484L7.28031 4.26131Z" fill="#ffffff"/> <path d="M13.1606 16.106L14.575 17.5204L9.43055 22.4934C8.25328 23.6314 6.36431 22.329 7.0093 20.824L9.93388 14H5.50179C3.80978 14 2.60645 12.3544 3.11948 10.742L4.24844 7.19383L5.84063 8.78603L5.02533 11.3484C4.92272 11.6709 5.16339 12 5.50179 12H9.0546L11.7933 14.7386L9.82562 19.3298L13.1606 16.106Z" fill="#ffffff"/> <path d="M2.00789 2.00786C1.61737 2.39838 1.61737 3.03155 2.00789 3.42207L20.5862 22.0004C20.9767 22.3909 21.6099 22.3909 22.0004 22.0004C22.391 21.6099 22.391 20.9767 22.0004 20.5862L3.4221 2.00786C3.03158 1.61733 2.39841 1.61733 2.00789 2.00786Z" fill="#ffffff"/> </g>
</svg>