<?xml version="1.0" encoding="utf-8"?><!-- Uploaded to: SVG Repo, www.svgrepo.com, Generator: SVG Repo Mixer Tools -->
<svg width="800px" height="800px" viewBox="0 0 24 24" xmlns="http://www.w3.org/2000/svg" id="up-alt-circle" class="icon glyph"><path d="M12,8.42,14.6,11H14a1,1,0,0,0-1,1v4H11V12a1,1,0,0,0-1-1H9.42ZM22,12A10,10,0,1,1,12,2,10,10,0,0,1,22,12ZM16,9.58,13.42,7a2.07,2.07,0,0,0-2.84,0L8,9.58a2,2,0,0,0-.43,2.19A2,2,0,0,0,9,13v3a2,2,0,0,0,2,2h2a2,2,0,0,0,2-2V13a2,2,0,0,0,1.43-1.19A2,2,0,0,0,16,9.58Z" style="fill:#231f20"></path></svg>